<svg width="37" height="30" viewBox="0 0 37 30" fill="none" xmlns="http://www.w3.org/2000/svg">
<path d="M0 25C0 27.75 2.27045 30 5.04545 30H10.0909V19.3333L0 11.5333V25Z" fill="#4285F4"/>
<path d="M5.88636 0C2.64045 0 0 2.61667 0 5.83333V7.3L10.0909 15.1167V1.68333L9.51909 1.23333C8.47636 0.433333 7.215 0 5.88636 0Z" fill="#C5221F"/>
<path d="M13.4545 4.28333V17.7167L18.5 21.6167L23.5455 17.7167V4.28333L18.5 8.18333L13.4545 4.28333Z" fill="#EA4335"/>
<path d="M31.1136 0C29.785 0 28.5236 0.433333 27.4809 1.23333L26.9091 1.68333V15.1167L37 7.3V5.83333C37 2.61667 34.3595 0 31.1136 0Z" fill="#FBBC04"/>
<path d="M26.9091 30H31.9545C34.7295 30 37 27.75 37 25V11.5333L26.9091 19.3333V30Z" fill="#34A853"/>
</svg>
