<svg width="29" height="30" viewBox="0 0 29 30" fill="none" xmlns="http://www.w3.org/2000/svg">
	<path d="M6.06514 5.00804L27.2186 3.924L22.551 1.26428C21.3979 0.479901 20.0017 0.107044 18.6235 0.203711L1.92919 0.872092L6.06514 5.00804ZM4.14286 6.99109L0 2.84823V21.4635C0 22.2865 0.240286 23.0806 0.696 23.7614L4.14286 28.933V6.99109ZM6.90476 7.73128V29.8113L27.7047 28.5119C28.4324 28.4663 29 27.8628 29 27.1337V6.5989L6.90476 7.73128ZM25.4896 11.7222C24.7563 11.8741 24.7563 11.8741 24.7563 12.6129C24.7563 16.5818 24.7536 20.5507 24.7632 24.5195C24.7632 24.7957 24.6887 24.9642 24.4263 25.047C23.9554 25.1962 23.4941 25.3895 23.0136 25.4903C22.2444 25.6505 21.5677 25.4392 21.1065 24.7791C20.4699 23.8691 19.8498 22.948 19.245 22.0172C17.8391 19.8533 16.4458 17.6797 15.0482 15.5102C15.0179 15.4632 14.9833 15.4204 14.9032 15.3141C14.8867 15.4619 14.8687 15.5502 14.8687 15.6386C14.8673 18.3398 14.8701 21.0423 14.8618 23.7434C14.8604 23.9823 14.9378 24.079 15.1684 24.1232C15.6862 24.2226 16.2 24.3469 16.7109 24.4601C16.6488 25.0208 16.338 25.3688 15.7636 25.4641C15.3424 25.5331 14.9115 25.5428 14.4834 25.5677C13.4477 25.6298 12.4092 25.6768 11.3749 25.7499C11.0739 25.772 11.0131 25.6464 11.0642 25.4006C11.1277 25.094 11.2838 24.8717 11.6152 24.7916C11.9411 24.7129 12.2629 24.6107 12.586 24.5195C12.586 20.6335 12.586 16.7682 12.586 12.8753C12.0944 12.8325 11.6138 12.7897 11.1374 12.7483C10.9482 12.0799 11.3652 11.4626 12.0709 11.406C13.3414 11.3038 14.6188 11.2638 15.8851 11.1243C16.4264 11.0635 16.6805 11.2624 16.9512 11.6767C18.7437 14.4206 20.5596 17.1494 22.3687 19.8823C22.435 19.9831 22.5081 20.0811 22.638 20.2676C22.638 17.5043 22.638 14.8432 22.638 12.1614C22.196 12.1103 21.7735 12.0495 21.3481 12.0178C21.1161 12.0012 21.0595 11.8962 21.0858 11.6919C21.1424 11.2541 21.4862 10.8564 21.9475 10.8219C23.3505 10.7169 24.7577 10.6451 26.1566 10.5622C26.3596 11.2527 26.1635 11.5828 25.4896 11.7222Z" fill="black"/>
</svg>
