<svg width="30" height="30" viewBox="0 0 30 30" fill="none" xmlns="http://www.w3.org/2000/svg">
	<g clip-path="url(#clip0_2816_3428)">
		<path fill-rule="evenodd" clip-rule="evenodd" d="M3.75 0H26.25C28.3211 0 30 1.67892 30 3.75V26.25C30 28.3211 28.3211 30 26.25 30H3.75C1.67892 30 0 28.3211 0 26.25V3.75C0 1.67892 1.67892 0 3.75 0ZM7.65625 9.04998V10.2313H10.4688L12.6062 22.2688L15.3906 22.0719C18.1281 18.6031 19.975 16.0063 20.9313 14.2812C21.9063 12.5375 22.3938 11.0844 22.3938 9.92188C22.3938 9.22814 22.1875 8.70312 21.775 8.34686C21.3813 7.99061 20.8844 7.8125 20.2844 7.8125C19.1594 7.8125 18.2219 8.29064 17.4719 9.24686C18.2031 9.73438 18.7 10.1375 18.9625 10.4562C19.2437 10.7563 19.3844 11.1594 19.3844 11.6656C19.3844 12.5094 19.1313 13.4656 18.625 14.5344C18.1375 15.6031 17.6031 16.55 17.0219 17.375C16.6469 17.9 16.1688 18.5469 15.5875 19.3156L13.7594 8.9375C13.6094 8.18748 13.1406 7.8125 12.3531 7.8125C11.9969 7.8125 11.3125 7.9625 10.3 8.26248C9.28748 8.54373 8.40625 8.80627 7.65625 9.04998Z" fill="#20C997"/>
	</g>
	<defs>
		<clipPath id="clip0_2816_3428">
			<rect width="30" height="30" fill="white"/>
		</clipPath>
	</defs>
</svg>
