<svg width="24" height="28" viewBox="0 0 24 28" fill="none" xmlns="http://www.w3.org/2000/svg">
	<path d="M22.0784 0.0918751C20.7669 0.329638 18.741 0.910221 18.1159 1.2254C17.8648 1.35257 17.569 1.62904 17.4574 1.83362C17.4128 1.91656 17.3514 1.93868 17.156 1.92762C16.8658 1.91104 16.5142 2.09903 15.5822 2.79573C14.6614 3.48137 14.0977 3.96243 13.2885 4.76419C12.2839 5.75947 11.7705 6.45064 11.4245 7.28005C11.3073 7.55651 11.2738 7.58969 11.0394 7.6671C10.8217 7.73898 10.7268 7.81087 10.4813 8.1371C10.2413 8.4578 9.54927 9.69638 9.45998 9.9839C9.43766 10.0392 9.35952 9.98943 9.18652 9.82908C8.37171 9.07156 6.80347 8.02651 5.79891 7.57863C5.31895 7.36299 4.58786 7.12522 4.12464 7.03123C3.63352 6.9317 3.37122 6.97593 3.14799 7.20816C2.94149 7.41828 2.8801 7.61734 2.8801 8.03204V8.38592H2.56199C2.00948 8.38592 1.70811 8.66792 1.70811 9.18768V9.4365H1.19467C0.564031 9.4365 0.363119 9.5305 0.195692 9.90649C0.0840741 10.1498 0.0840741 10.2825 0.100817 16.6081C0.111979 21.8886 0.128721 23.0885 0.190111 23.1991C0.257082 23.3097 0.251501 23.365 0.173368 23.5751C0.106398 23.7465 0.0840741 23.9179 0.100817 24.1335C0.12314 24.3934 0.156626 24.4653 0.318472 24.6091C0.49148 24.7694 0.608678 24.8026 1.81973 25.0459C2.8801 25.2615 7.41179 26.2347 8.74004 26.5388C9.02467 26.5996 9.05816 26.6273 9.1921 26.8706C9.62183 27.6557 10.6096 28.1368 11.4579 27.9654C12.1276 27.8327 12.7918 27.3627 13.015 26.854C13.0764 26.7213 13.1657 26.6162 13.2327 26.6052C13.2941 26.5886 13.9359 26.4503 14.6558 26.2955C15.3757 26.1407 16.1682 25.9693 16.4138 25.914C16.6593 25.8587 17.8927 25.5988 19.1484 25.3334C20.4097 25.068 21.5426 24.8081 21.671 24.7528C22.1119 24.5593 22.257 24.0561 22.0282 23.5198C21.9444 23.3318 21.9333 23.2599 21.9835 23.2101C22.0337 23.1604 22.0561 21.485 22.0672 16.5749L22.0784 10.0116L21.9556 9.82355C21.7435 9.52497 21.5147 9.4365 20.9231 9.4365H20.4041V9.14344C20.4041 8.80615 20.3148 8.65133 20.0414 8.50756L19.8516 8.41356L20.0581 7.93251C20.2199 7.55099 20.3092 7.41828 20.4599 7.31875C20.6776 7.18052 21.2078 6.38982 21.3082 6.05253C21.3417 5.93641 21.4589 5.74841 21.5594 5.63783C21.6766 5.50512 22.1677 4.59278 22.843 3.24361C23.881 1.15904 23.9257 1.04845 23.9033 0.794104C23.881 0.512108 23.7582 0.30752 23.5127 0.125051C23.3006 -0.0297699 22.8039 -0.0408287 22.0784 0.0918751ZM23.0271 0.954456C23.0271 1.0374 21.0124 4.96324 20.9008 5.10148C20.8729 5.13465 20.4599 5.31159 19.9744 5.49959C19.4888 5.68206 19.0424 5.85347 18.981 5.87559C18.9029 5.90876 18.9754 5.93088 19.2321 5.953L19.5949 5.98065L19.394 6.10229C19.2824 6.17417 18.7075 6.38429 18.1104 6.58335C17.5132 6.77687 16.9049 6.99252 16.7486 7.05887C16.4975 7.16393 16.4807 7.18052 16.5812 7.24134C16.6482 7.27452 17.0891 7.30216 17.7644 7.30216C18.3559 7.30769 18.8415 7.31322 18.8415 7.32428C18.8415 7.44593 16.8714 11.3607 16.6593 11.6593C16.5979 11.7422 16.4082 11.8749 16.2296 11.9524C15.772 12.1625 13.8856 12.7762 13.2327 12.9255C12.2951 13.1356 12.4346 13.2131 13.4838 13.0582C14.7842 12.8647 15.8948 12.5716 16.637 12.2233C16.9105 12.1017 16.9328 12.0685 17.3123 11.3607C17.7197 10.6032 18.5345 8.93332 19.0201 7.86063C19.2824 7.27452 19.4163 7.05887 19.4833 7.12522C19.567 7.20816 18.049 10.4428 17.3235 11.7201L17.05 12.2012L16.5366 12.45C16.2519 12.5827 15.8836 12.7431 15.7162 12.8039C15.3534 12.9311 15.465 12.9476 16.1571 12.8647C16.4138 12.8315 16.6314 12.8149 16.6482 12.826C16.6984 12.8758 15.9896 13.6886 15.4818 14.1696C15.186 14.4461 14.7339 14.811 14.4772 14.9824C13.9359 15.3363 12.9648 15.8229 12.3676 16.0386C12.1388 16.1215 11.8821 16.2155 11.7984 16.2487L11.6421 16.304V17.1002V17.8964H11.4133C11.2291 17.8964 11.1901 17.913 11.218 17.9849C11.2347 18.0347 11.2682 18.1674 11.2849 18.2779C11.3128 18.4659 11.3073 18.4936 11.1901 18.5212C11.1175 18.5434 10.9891 18.5599 10.9054 18.5599C10.805 18.5599 10.7492 18.5876 10.7492 18.6429C10.7492 18.7092 10.8217 18.7258 11.0784 18.7258H11.4021L11.5305 19.0742C11.6756 19.4833 12.1946 20.6611 12.2616 20.7496C12.2951 20.7883 12.1779 20.9763 11.9435 21.2749C11.2124 22.1872 10.738 22.9945 10.4087 23.8681L10.2748 24.2275L10.2413 23.6193C10.219 23.282 10.2022 22.6185 10.1967 22.143L10.1911 21.2749L10.3529 21.1864C10.565 21.0813 10.7324 20.8491 10.7715 20.6058C10.8217 20.357 10.6766 20.0695 10.4143 19.8981C10.1353 19.7101 9.69996 19.7488 9.46556 19.9699C9.05257 20.3625 9.17535 21.0039 9.69996 21.2196L9.87297 21.2915L9.83948 22.425C9.82274 23.0498 9.78367 23.6525 9.75577 23.7575L9.70554 23.9511L9.37627 23.2599C8.91863 22.3199 8.65075 21.8831 8.18195 21.308L7.78571 20.8215L7.91965 20.5892C8.27683 19.981 8.85166 18.4051 8.85166 18.0181C8.85166 17.9296 8.81818 17.8964 8.72888 17.8964C8.47216 17.8964 8.45542 17.8467 8.47216 17.1168L8.4889 16.4311L8.88515 16.4146L9.28139 16.398L9.31488 15.1704C9.3651 13.4563 9.52695 12.45 9.97342 11.123C10.325 10.0613 11.1398 8.54074 11.3966 8.4578C11.4468 8.44121 11.6142 9.76273 11.564 9.81249C11.5528 9.81802 11.497 9.59132 11.4412 9.30379L11.3407 8.77297L11.2403 8.9278C10.8999 9.41991 10.3529 10.7138 10.1129 11.5929C9.80599 12.7154 9.73902 13.2849 9.71112 14.8553L9.6888 16.3206L9.85622 15.9888C9.9511 15.8063 10.2636 15.1373 10.5538 14.5014C11.5082 12.4113 12.6076 10.6364 14.1591 8.66239C15.7943 6.58887 18.2555 4.17807 20.0581 2.88973C20.2144 2.77362 19.5223 3.49796 18.5122 4.49878C16.5756 6.41747 15.5655 7.5344 14.4939 8.93885C13.3778 10.4041 12.7471 11.3939 12.0384 12.7928C11.5082 13.8489 10.6822 15.9114 10.7603 15.9888C10.7715 15.9999 11.0338 15.9611 11.3352 15.9003C12.9257 15.5796 14.4437 14.7834 15.6101 13.6554C15.945 13.3292 16.2129 13.0582 16.2017 13.0527C16.1961 13.0416 15.7329 13.0693 15.186 13.1135C14.6335 13.1578 13.9414 13.2131 13.6512 13.2352C13.188 13.2683 13.149 13.2794 13.3443 13.3181C13.6233 13.3679 15.2976 13.3845 15.3757 13.3347C15.4092 13.3181 15.4371 13.3181 15.4371 13.3458C15.4315 13.4563 13.9917 14.341 13.2885 14.6617C12.6857 14.9382 11.4245 15.4193 11.3631 15.3972C11.2905 15.3695 11.8207 14.0977 12.3174 13.0859C12.8197 12.0685 13.5843 10.7691 14.1256 10.0171C14.4939 9.50285 16.1124 7.47357 16.9328 6.48382C17.4797 5.83135 18.6406 4.58172 19.8963 3.29891C20.3818 2.79573 20.778 2.38103 20.7669 2.36997C20.7334 2.3368 19.8125 2.90632 19.2321 3.31549C18.3224 3.9569 17.0779 5.03512 15.8222 6.27923C14.3712 7.72239 13.5285 8.72321 12.5127 10.2106C12.0104 10.9405 12.0049 10.9515 12.0495 10.7635C12.0663 10.6861 12.1611 10.183 12.256 9.64661C12.602 7.63945 12.9369 7.04228 14.6111 5.41112C15.3813 4.65913 16.5589 3.61961 16.5979 3.65278C16.6091 3.66384 16.5868 3.92925 16.5533 4.2389C16.4863 4.90795 16.4807 5.28948 16.5421 5.28948C16.5645 5.28948 16.7821 4.97983 17.0221 4.59831C17.2621 4.21678 17.4797 3.89055 17.5076 3.87396C17.53 3.8629 17.4686 4.02878 17.3625 4.24996C17.2621 4.47113 17.1895 4.66466 17.2007 4.67572C17.2397 4.71442 17.3625 4.53195 17.7867 3.8242C18.5959 2.4695 18.674 2.35891 18.8861 2.25386C19.2265 2.08245 20.566 1.65668 21.4198 1.44104C21.8551 1.33598 22.2626 1.23092 22.3184 1.21434C22.4244 1.18669 22.1175 1.79492 20.9734 3.91266L20.4822 4.81948L19.98 5.10148C19.7065 5.2563 19.26 5.50512 18.981 5.64888C17.8313 6.26264 19.0759 5.80371 20.4822 5.09595L20.8115 4.93007L21.8384 2.9782C22.4077 1.90551 22.8541 1.00975 22.8374 0.993162C22.7369 0.893633 20.6608 1.36916 19.567 1.74516C18.4675 2.12115 18.4229 2.14327 18.1773 2.53585C17.4965 3.61961 17.3737 3.80208 17.3514 3.77996C17.3179 3.74125 17.5188 3.3542 17.9318 2.67962L18.2945 2.08797L18.6908 1.92762C19.7344 1.50186 22.1286 0.882574 22.7927 0.871515C22.9713 0.865986 23.0271 0.888103 23.0271 0.954456ZM17.223 2.92291C17.223 3.10538 16.8937 4.31078 16.8268 4.37713C16.7877 4.41584 16.7821 4.38819 16.7989 4.29419C16.9049 3.85184 17.0556 3.05561 17.0388 3.03903C17.0054 3.00585 16.0064 3.72467 15.3813 4.22784C14.6614 4.81395 13.4447 6.01382 13.0485 6.53358C12.256 7.56757 11.8486 8.99968 11.9379 10.4041C11.9602 10.7746 11.9546 10.8686 11.91 10.7635C11.8207 10.5479 11.843 9.14344 11.9435 8.5905C12.1723 7.35193 12.7304 6.4617 14.1368 5.1236C14.4995 4.77525 15.0465 4.29419 15.3422 4.0509C16.0343 3.50349 17.0444 2.80126 17.1449 2.80126C17.1895 2.80126 17.223 2.85656 17.223 2.92291ZM20.5157 5.77606C20.5157 5.84794 20.1027 6.46723 20.0023 6.55017C19.8907 6.63864 19.1149 6.84875 18.2387 7.03123C17.3458 7.21369 17.223 7.19711 17.9485 6.99805C18.2722 6.90958 18.8303 6.7437 19.1931 6.63311C19.8795 6.42299 19.8628 6.43405 20.2534 5.93088C20.3985 5.74288 20.5157 5.67653 20.5157 5.77606ZM4.35346 7.97675C5.49754 8.26427 6.56349 8.8338 7.90291 9.89543C8.51681 10.3765 9.76693 11.5321 9.72228 11.5764C9.71112 11.5929 9.47672 11.4215 9.20326 11.2059C8.02569 10.2548 6.29003 9.48626 4.53763 9.13238C4.15813 9.05497 3.82886 8.99415 3.81211 8.99415C3.79537 8.99415 3.77305 8.74533 3.76188 8.44121C3.74514 7.79981 3.72282 7.81639 4.35346 7.97675ZM11.5026 10.1277C11.5528 10.277 11.6533 10.57 11.7314 10.7746L11.8709 11.1451L11.5417 11.6869C11.084 12.4389 10.6208 13.3568 10.2357 14.3023L9.90645 15.1041L9.93994 14.5235C10.0404 12.7707 10.3473 11.4271 11.0617 9.5692L11.2794 9.01074L11.3519 9.43097C11.391 9.6632 11.4579 9.97285 11.5026 10.1277ZM4.09674 9.46414C5.20734 9.73508 6.13935 10.0558 7.00997 10.465C7.75781 10.8244 8.87399 11.5155 9.11954 11.7699C9.24232 11.9081 9.24232 11.9081 9.15303 12.2896C8.99677 12.9753 8.90747 13.8102 8.8684 15.0046L8.83492 16.1823H8.56704H8.29915L8.28241 17.3269C8.26009 18.6871 8.23776 18.7701 7.56806 20.0861L7.14391 20.9265L7.55689 21.4131C7.99779 21.9439 8.61726 22.8341 9.18652 23.7575C9.38185 24.0783 9.68322 24.4874 9.85622 24.6644C10.1743 25.0072 10.152 24.9961 9.43208 24.4432C7.72432 23.1383 5.92727 22.1983 3.77305 21.4905L2.62896 21.1145L2.61222 17.5149L2.60106 13.9153H1.79183H0.982598V12.0851V10.2604L1.22258 10.277L1.45697 10.2935L1.44023 11.7754L1.41791 13.2628L1.55185 13.2407L1.68021 13.2241L1.65789 11.7422L1.63556 10.2659H1.89787H2.15459V11.6206V12.9753H2.37782H2.60106V11.0898V9.19873L2.95824 9.23744C3.15357 9.25403 3.66143 9.35909 4.09674 9.46414ZM19.5 15.1926L19.4833 21.1698L18.395 21.5403C17.1728 21.955 16.5254 22.2259 15.465 22.7678C14.293 23.3539 13.4838 23.8737 11.3742 25.3832L11.084 25.5933L10.6655 25.3334C10.4366 25.1952 10.2357 25.0514 10.2134 25.0238C10.1018 24.8413 11.3296 22.9116 12.3676 21.6343L12.9927 20.8657L12.7974 20.5008C12.4569 19.8704 11.9212 18.477 11.9212 18.2171C11.9212 18.1563 11.9602 18.1176 12.0272 18.1176C12.1221 18.1176 12.1276 18.0678 12.0997 17.3214C12.0774 16.6855 12.0886 16.5196 12.15 16.4809C12.1946 16.4533 12.4792 16.3316 12.7862 16.21C14.7339 15.4359 16.2687 14.1088 17.53 12.1182C17.703 11.8418 18.1159 11.0787 18.4396 10.4207L19.0368 9.22085L19.2768 9.21532H19.5112L19.5 15.1926ZM20.4599 16.0164V21.7614L20.2255 21.8223C18.4396 22.2812 16.5087 23.0498 14.8734 23.9511C14.1368 24.3602 13.149 24.9298 13.149 24.9519C13.149 24.9574 13.707 24.6975 14.3935 24.3658C17.05 23.0885 18.674 22.4637 20.2255 22.1209L20.6832 22.0158V16.1381V10.2604L20.951 10.277L21.2133 10.2935L21.2301 13.6167C21.2413 16.4864 21.2524 16.9509 21.325 17.0117C21.4533 17.1168 21.431 17.4651 21.2915 17.5868C21.1743 17.6863 21.1743 17.6918 21.191 20.2353L21.2133 22.7899L20.8785 22.8563C19.8181 23.083 18.4508 23.4037 17.8871 23.564C16.0901 24.0783 13.1769 25.3002 12.2002 25.9527C11.5919 26.3563 11.43 26.4282 11.1063 26.4282C10.7938 26.4282 10.6041 26.3398 9.73902 25.7924C8.32706 24.9021 4.59344 23.5419 2.08762 23.0056C1.70811 22.9281 1.30629 22.8397 1.19467 22.812L0.982598 22.7567V18.6152V14.4682H1.56859H2.15459V17.9794V21.485L2.39457 21.5458C3.92931 21.9384 5.98866 22.7899 7.65177 23.7299C8.35496 24.1225 8.51681 24.2275 10.0739 25.2671L11.0394 25.9195L11.3017 25.7702C11.4412 25.6873 11.9491 25.3721 12.4234 25.0625C15.0241 23.3926 16.8156 22.5079 19.0368 21.7946L19.9297 21.5071L19.9465 15.8837L19.9576 10.2659H20.2088H20.4599V16.0164ZM3.01963 23.4645C4.82784 23.8571 6.37374 24.3602 8.00895 25.0957C9.25907 25.6541 9.62741 25.8421 9.96784 26.1075C10.4534 26.478 10.7268 26.5941 11.1119 26.5941C11.497 26.5941 11.7426 26.4891 12.1723 26.1352C12.5127 25.8532 12.6913 25.7592 14.0754 25.1675C15.4929 24.5593 16.1626 24.316 17.4351 23.9566C18.3448 23.6912 20.6497 23.1493 20.845 23.1493C20.9064 23.1493 21.3194 23.9234 21.2747 23.9677C21.2636 23.9787 20.6162 24.1225 19.8349 24.2828C19.0591 24.4432 18.0825 24.6533 17.6695 24.7473C17.2565 24.8358 16.0622 25.1012 15.0186 25.3334C12.3899 25.914 12.5518 25.8587 12.3955 26.2126C12.2169 26.6107 11.9993 26.8485 11.67 26.9978C10.9445 27.335 10.1632 26.9922 9.80041 26.1739L9.6888 25.9306L9.14187 25.7813C7.9364 25.4606 4.36462 24.6588 2.32759 24.2497C1.57417 24.1004 0.954694 23.9677 0.943532 23.9566C0.926789 23.9455 0.982598 23.8128 1.06073 23.6691C1.13886 23.5198 1.217 23.3318 1.23374 23.2544L1.26722 23.1106L1.69695 23.188C1.93135 23.2323 2.52851 23.3539 3.01963 23.4645Z" fill="white"/>
	<path d="M8.89075 16.8238C8.86843 16.8459 8.85168 17.0118 8.85168 17.1942C8.85168 17.5094 8.85727 17.5205 8.98005 17.4873C9.04702 17.4707 9.59952 17.4541 10.2078 17.4541H11.3073V17.15V16.8459H10.1967C9.58278 16.8459 9.04702 16.8348 9.00795 16.8182C8.9633 16.8016 8.91307 16.8072 8.89075 16.8238Z" fill="white"/>
	<path d="M1.44024 18.3665L1.45698 21.9938L2.29412 22.2094C3.9349 22.6241 5.29664 23.1605 7.47877 24.2387C8.24893 24.6202 8.85725 24.9078 8.82376 24.8746C8.6675 24.7253 7.26669 23.918 6.50769 23.5365C5.03992 22.8066 3.64469 22.2647 2.34992 21.933L1.73603 21.7781L1.70812 18.2725L1.68022 14.7724L1.55186 14.7559L1.42908 14.7393L1.44024 18.3665Z" fill="white"/>
</svg>
